<?xml version="1.0" encoding="UTF-8"?>
<svg width="512px" height="512px" viewBox="0 0 512 512" xmlns="http://www.w3.org/2000/svg">
    <path fill="#F05133" d="M502.34 213.89L297.75 9.29C284.28-4.18 262.36-4.18 248.89 9.29L198.69 59.49l62.77 62.77c14.62-4.92 31.38-1.62 43.06 10.06 11.77 11.77 15.02 28.71 9.89 43.41l60.51 60.51c14.7-5.13 31.64-1.88 43.41 9.89 16.45 16.45 16.45 43.07 0 59.52-16.45 16.45-43.07 16.45-59.52 0-12.38-12.38-15.44-30.54-9.17-45.79l-56.39-56.39v148.04c4 2 7.78 4.64 11.11 7.97 16.45 16.45 16.45 43.07 0 59.52-16.45 16.45-43.07 16.45-59.52 0-16.45-16.45-16.45-43.07 0-59.52 4.07-4.07 8.77-7.14 13.79-9.21V198.69c-5.02-2.07-9.72-5.14-13.79-9.21-12.46-12.46-15.44-30.77-9.04-46.09l-61.87-61.87L9.29 248.89c-13.47 13.47-13.47 35.39 0 48.86l204.59 204.59c13.47 13.47 35.39 13.47 48.86 0l204.59-204.59c13.47-13.47 13.47-35.39 0-48.86z"/>
</svg>
